<mxfile host="app.diagrams.net" modified="2023-11-03T09:24:44.249Z" agent="Mozilla/5.0 (Windows NT 10.0; Win64; x64) AppleWebKit/537.36 (KHTML, like Gecko) Chrome/119.0.0.0 Safari/537.36" etag="_SNKEXEuR6URp-y2T8Nb" version="22.0.8" type="github">
  <diagram name="Página-1" id="U7eRp_wIJ3z8M9ZFi2TI">
    <mxGraphModel dx="1862" dy="525" grid="1" gridSize="10" guides="1" tooltips="1" connect="1" arrows="1" fold="1" page="1" pageScale="1" pageWidth="827" pageHeight="1169" math="0" shadow="0">
      <root>
        <mxCell id="0" />
        <mxCell id="1" parent="0" />
        <mxCell id="X3y3t1-5_hOGcymcrG0z-1" value="Tabla Barrios" style="whiteSpace=wrap;html=1;align=center;" vertex="1" parent="1">
          <mxGeometry x="20" y="95" width="100" height="40" as="geometry" />
        </mxCell>
        <mxCell id="X3y3t1-5_hOGcymcrG0z-2" value="Tabla Calles" style="whiteSpace=wrap;html=1;align=center;" vertex="1" parent="1">
          <mxGeometry x="270" y="105" width="100" height="40" as="geometry" />
        </mxCell>
        <mxCell id="X3y3t1-5_hOGcymcrG0z-3" value="Tabla estaciones" style="whiteSpace=wrap;html=1;align=center;" vertex="1" parent="1">
          <mxGeometry x="570" y="230" width="100" height="40" as="geometry" />
        </mxCell>
        <mxCell id="X3y3t1-5_hOGcymcrG0z-4" value="Tabla lineas_metro" style="whiteSpace=wrap;html=1;align=center;" vertex="1" parent="1">
          <mxGeometry x="290" y="260" width="100" height="40" as="geometry" />
        </mxCell>
        <mxCell id="X3y3t1-5_hOGcymcrG0z-5" value="Tabla líneas_autobuses" style="whiteSpace=wrap;html=1;align=center;" vertex="1" parent="1">
          <mxGeometry x="60" y="270" width="100" height="40" as="geometry" />
        </mxCell>
        <mxCell id="X3y3t1-5_hOGcymcrG0z-6" value="Tabla puntos_interes" style="whiteSpace=wrap;html=1;align=center;" vertex="1" parent="1">
          <mxGeometry x="210" y="370" width="100" height="40" as="geometry" />
        </mxCell>
        <mxCell id="X3y3t1-5_hOGcymcrG0z-7" value="Tabla localizaciones" style="whiteSpace=wrap;html=1;align=center;" vertex="1" parent="1">
          <mxGeometry x="480" y="340" width="100" height="40" as="geometry" />
        </mxCell>
        <mxCell id="X3y3t1-5_hOGcymcrG0z-8" value="Tabla Tramos" style="whiteSpace=wrap;html=1;align=center;" vertex="1" parent="1">
          <mxGeometry x="660" y="60" width="100" height="40" as="geometry" />
        </mxCell>
        <mxCell id="X3y3t1-5_hOGcymcrG0z-9" value="id_barrio" style="ellipse;whiteSpace=wrap;html=1;align=center;" vertex="1" parent="1">
          <mxGeometry x="-120" y="55" width="100" height="40" as="geometry" />
        </mxCell>
        <mxCell id="X3y3t1-5_hOGcymcrG0z-10" value="nombre_barrio" style="ellipse;whiteSpace=wrap;html=1;align=center;" vertex="1" parent="1">
          <mxGeometry x="-110" y="105" width="100" height="40" as="geometry" />
        </mxCell>
        <mxCell id="X3y3t1-5_hOGcymcrG0z-13" value="id_calle" style="ellipse;whiteSpace=wrap;html=1;align=center;" vertex="1" parent="1">
          <mxGeometry x="280" y="40" width="100" height="40" as="geometry" />
        </mxCell>
        <mxCell id="X3y3t1-5_hOGcymcrG0z-14" value="nombre_calle" style="ellipse;whiteSpace=wrap;html=1;align=center;" vertex="1" parent="1">
          <mxGeometry x="380" y="30" width="100" height="40" as="geometry" />
        </mxCell>
        <mxCell id="X3y3t1-5_hOGcymcrG0z-15" value="id_barrio" style="ellipse;whiteSpace=wrap;html=1;align=center;" vertex="1" parent="1">
          <mxGeometry x="400" y="70" width="100" height="40" as="geometry" />
        </mxCell>
        <mxCell id="X3y3t1-5_hOGcymcrG0z-17" value="id_tramo" style="ellipse;whiteSpace=wrap;html=1;align=center;" vertex="1" parent="1">
          <mxGeometry x="670" width="100" height="40" as="geometry" />
        </mxCell>
        <mxCell id="X3y3t1-5_hOGcymcrG0z-18" value="id_barrio" style="ellipse;whiteSpace=wrap;html=1;align=center;" vertex="1" parent="1">
          <mxGeometry x="727" y="135" width="100" height="40" as="geometry" />
        </mxCell>
        <mxCell id="X3y3t1-5_hOGcymcrG0z-19" value="id_calle_fin" style="ellipse;whiteSpace=wrap;html=1;align=center;" vertex="1" parent="1">
          <mxGeometry x="620" y="130" width="100" height="40" as="geometry" />
        </mxCell>
        <mxCell id="X3y3t1-5_hOGcymcrG0z-20" value="id_calle_inicio" style="ellipse;whiteSpace=wrap;html=1;align=center;" vertex="1" parent="1">
          <mxGeometry x="540" y="70" width="100" height="40" as="geometry" />
        </mxCell>
        <mxCell id="X3y3t1-5_hOGcymcrG0z-22" value="id_linea_autobus&lt;span style=&quot;white-space: pre;&quot;&gt;&#x9;&lt;/span&gt;&lt;span style=&quot;white-space: pre;&quot;&gt;&#x9;&lt;/span&gt;" style="ellipse;whiteSpace=wrap;html=1;align=center;" vertex="1" parent="1">
          <mxGeometry x="-60" y="210" width="100" height="40" as="geometry" />
        </mxCell>
        <mxCell id="X3y3t1-5_hOGcymcrG0z-23" value="nombre_linea_autobus" style="ellipse;whiteSpace=wrap;html=1;align=center;" vertex="1" parent="1">
          <mxGeometry x="120" y="200" width="130" height="50" as="geometry" />
        </mxCell>
        <mxCell id="X3y3t1-5_hOGcymcrG0z-24" value="id_linea_metro" style="ellipse;whiteSpace=wrap;html=1;align=center;" vertex="1" parent="1">
          <mxGeometry x="260" y="175" width="100" height="40" as="geometry" />
        </mxCell>
        <mxCell id="X3y3t1-5_hOGcymcrG0z-25" value="nombre_linea_metro" style="ellipse;whiteSpace=wrap;html=1;align=center;" vertex="1" parent="1">
          <mxGeometry x="380" y="175" width="100" height="40" as="geometry" />
        </mxCell>
        <mxCell id="X3y3t1-5_hOGcymcrG0z-26" value="nombre_estacion" style="ellipse;whiteSpace=wrap;html=1;align=center;" vertex="1" parent="1">
          <mxGeometry x="550" y="145" width="100" height="40" as="geometry" />
        </mxCell>
        <mxCell id="X3y3t1-5_hOGcymcrG0z-27" value="id_estacion" style="ellipse;whiteSpace=wrap;html=1;align=center;" vertex="1" parent="1">
          <mxGeometry x="710" y="230" width="100" height="40" as="geometry" />
        </mxCell>
        <mxCell id="X3y3t1-5_hOGcymcrG0z-28" value="id_linea_metro" style="ellipse;whiteSpace=wrap;html=1;align=center;" vertex="1" parent="1">
          <mxGeometry x="670" y="280" width="100" height="40" as="geometry" />
        </mxCell>
        <mxCell id="X3y3t1-5_hOGcymcrG0z-29" value="nombre_punto_interes" style="ellipse;whiteSpace=wrap;html=1;align=center;" vertex="1" parent="1">
          <mxGeometry x="125" y="450" width="120" height="60" as="geometry" />
        </mxCell>
        <mxCell id="X3y3t1-5_hOGcymcrG0z-30" value="id_punto_interes" style="ellipse;whiteSpace=wrap;html=1;align=center;" vertex="1" parent="1">
          <mxGeometry x="80" y="360" width="100" height="40" as="geometry" />
        </mxCell>
        <mxCell id="X3y3t1-5_hOGcymcrG0z-31" value="tipo_punto_interes" style="ellipse;whiteSpace=wrap;html=1;align=center;" vertex="1" parent="1">
          <mxGeometry x="275" y="470" width="110" height="40" as="geometry" />
        </mxCell>
        <mxCell id="X3y3t1-5_hOGcymcrG0z-32" value="latitud_localizacion" style="ellipse;whiteSpace=wrap;html=1;align=center;" vertex="1" parent="1">
          <mxGeometry x="385" y="440" width="110" height="50" as="geometry" />
        </mxCell>
        <mxCell id="X3y3t1-5_hOGcymcrG0z-33" value="longitud_localizacion" style="ellipse;whiteSpace=wrap;html=1;align=center;" vertex="1" parent="1">
          <mxGeometry x="540" y="430" width="120" height="50" as="geometry" />
        </mxCell>
        <mxCell id="X3y3t1-5_hOGcymcrG0z-34" value="id_localizacion" style="ellipse;whiteSpace=wrap;html=1;align=center;" vertex="1" parent="1">
          <mxGeometry x="340" y="330" width="100" height="40" as="geometry" />
        </mxCell>
        <mxCell id="X3y3t1-5_hOGcymcrG0z-43" value="" style="endArrow=none;html=1;rounded=0;exitX=1;exitY=1;exitDx=0;exitDy=0;" edge="1" parent="1" source="X3y3t1-5_hOGcymcrG0z-9" target="X3y3t1-5_hOGcymcrG0z-1">
          <mxGeometry relative="1" as="geometry">
            <mxPoint x="40" y="55" as="sourcePoint" />
            <mxPoint x="200" y="55" as="targetPoint" />
          </mxGeometry>
        </mxCell>
        <mxCell id="X3y3t1-5_hOGcymcrG0z-44" value="" style="endArrow=none;html=1;rounded=0;exitX=1;exitY=0.5;exitDx=0;exitDy=0;" edge="1" parent="1" source="X3y3t1-5_hOGcymcrG0z-10" target="X3y3t1-5_hOGcymcrG0z-1">
          <mxGeometry relative="1" as="geometry">
            <mxPoint x="5.780000000000001" y="149" as="sourcePoint" />
            <mxPoint x="53.78" y="175" as="targetPoint" />
          </mxGeometry>
        </mxCell>
        <mxCell id="X3y3t1-5_hOGcymcrG0z-45" value="" style="endArrow=none;html=1;rounded=0;exitX=0;exitY=1;exitDx=0;exitDy=0;entryX=0.5;entryY=0;entryDx=0;entryDy=0;" edge="1" parent="1" source="X3y3t1-5_hOGcymcrG0z-13" target="X3y3t1-5_hOGcymcrG0z-2">
          <mxGeometry relative="1" as="geometry">
            <mxPoint x="190" y="50" as="sourcePoint" />
            <mxPoint x="350" y="50" as="targetPoint" />
          </mxGeometry>
        </mxCell>
        <mxCell id="X3y3t1-5_hOGcymcrG0z-46" value="" style="endArrow=none;html=1;rounded=0;entryX=1;entryY=0.5;entryDx=0;entryDy=0;" edge="1" parent="1" source="X3y3t1-5_hOGcymcrG0z-14" target="X3y3t1-5_hOGcymcrG0z-2">
          <mxGeometry relative="1" as="geometry">
            <mxPoint x="440.36" y="84" as="sourcePoint" />
            <mxPoint x="445.36" y="130" as="targetPoint" />
          </mxGeometry>
        </mxCell>
        <mxCell id="X3y3t1-5_hOGcymcrG0z-47" value="" style="endArrow=none;html=1;rounded=0;entryX=1;entryY=0.75;entryDx=0;entryDy=0;exitX=0.4;exitY=1;exitDx=0;exitDy=0;exitPerimeter=0;" edge="1" parent="1" source="X3y3t1-5_hOGcymcrG0z-15" target="X3y3t1-5_hOGcymcrG0z-2">
          <mxGeometry relative="1" as="geometry">
            <mxPoint x="489.52" y="90.12" as="sourcePoint" />
            <mxPoint x="436.52" y="151.12" as="targetPoint" />
          </mxGeometry>
        </mxCell>
        <mxCell id="X3y3t1-5_hOGcymcrG0z-49" value="" style="endArrow=none;html=1;rounded=0;exitX=0.25;exitY=1;exitDx=0;exitDy=0;" edge="1" parent="1" source="X3y3t1-5_hOGcymcrG0z-8" target="X3y3t1-5_hOGcymcrG0z-20">
          <mxGeometry relative="1" as="geometry">
            <mxPoint x="540" y="130" as="sourcePoint" />
            <mxPoint x="470" y="155" as="targetPoint" />
          </mxGeometry>
        </mxCell>
        <mxCell id="X3y3t1-5_hOGcymcrG0z-50" value="" style="endArrow=none;html=1;rounded=0;exitX=0.25;exitY=1;exitDx=0;exitDy=0;" edge="1" parent="1" source="X3y3t1-5_hOGcymcrG0z-8" target="X3y3t1-5_hOGcymcrG0z-19">
          <mxGeometry relative="1" as="geometry">
            <mxPoint x="550" y="120" as="sourcePoint" />
            <mxPoint x="480" y="145" as="targetPoint" />
          </mxGeometry>
        </mxCell>
        <mxCell id="X3y3t1-5_hOGcymcrG0z-51" value="" style="endArrow=none;html=1;rounded=0;exitX=0.43;exitY=0;exitDx=0;exitDy=0;exitPerimeter=0;" edge="1" parent="1" source="X3y3t1-5_hOGcymcrG0z-18" target="X3y3t1-5_hOGcymcrG0z-8">
          <mxGeometry relative="1" as="geometry">
            <mxPoint x="749.04" y="135" as="sourcePoint" />
            <mxPoint x="740.04" y="165" as="targetPoint" />
          </mxGeometry>
        </mxCell>
        <mxCell id="X3y3t1-5_hOGcymcrG0z-52" value="" style="endArrow=none;html=1;rounded=0;entryX=0.79;entryY=0.925;entryDx=0;entryDy=0;entryPerimeter=0;" edge="1" parent="1" source="X3y3t1-5_hOGcymcrG0z-8" target="X3y3t1-5_hOGcymcrG0z-17">
          <mxGeometry relative="1" as="geometry">
            <mxPoint x="796.09" y="92.5" as="sourcePoint" />
            <mxPoint x="758.09" y="57.5" as="targetPoint" />
          </mxGeometry>
        </mxCell>
        <mxCell id="X3y3t1-5_hOGcymcrG0z-55" value="" style="endArrow=none;html=1;rounded=0;exitX=0.686;exitY=0.949;exitDx=0;exitDy=0;exitPerimeter=0;entryX=0;entryY=0.25;entryDx=0;entryDy=0;" edge="1" parent="1" source="X3y3t1-5_hOGcymcrG0z-22" target="X3y3t1-5_hOGcymcrG0z-5">
          <mxGeometry relative="1" as="geometry">
            <mxPoint x="-110" y="310" as="sourcePoint" />
            <mxPoint x="50" y="310" as="targetPoint" />
          </mxGeometry>
        </mxCell>
        <mxCell id="X3y3t1-5_hOGcymcrG0z-56" value="" style="endArrow=none;html=1;rounded=0;entryX=0.75;entryY=0;entryDx=0;entryDy=0;" edge="1" parent="1" source="X3y3t1-5_hOGcymcrG0z-23" target="X3y3t1-5_hOGcymcrG0z-5">
          <mxGeometry relative="1" as="geometry">
            <mxPoint x="84.7" y="218" as="sourcePoint" />
            <mxPoint x="135.7" y="250" as="targetPoint" />
          </mxGeometry>
        </mxCell>
        <mxCell id="X3y3t1-5_hOGcymcrG0z-57" value="" style="endArrow=none;html=1;rounded=0;exitX=0;exitY=1;exitDx=0;exitDy=0;entryX=0.25;entryY=0;entryDx=0;entryDy=0;" edge="1" parent="1" source="X3y3t1-5_hOGcymcrG0z-24" target="X3y3t1-5_hOGcymcrG0z-4">
          <mxGeometry relative="1" as="geometry">
            <mxPoint x="209.7" y="278" as="sourcePoint" />
            <mxPoint x="260.7" y="310" as="targetPoint" />
          </mxGeometry>
        </mxCell>
        <mxCell id="X3y3t1-5_hOGcymcrG0z-58" value="" style="endArrow=none;html=1;rounded=0;entryX=1;entryY=0.5;entryDx=0;entryDy=0;" edge="1" parent="1" source="X3y3t1-5_hOGcymcrG0z-25" target="X3y3t1-5_hOGcymcrG0z-4">
          <mxGeometry relative="1" as="geometry">
            <mxPoint x="410" y="290" as="sourcePoint" />
            <mxPoint x="570" y="290" as="targetPoint" />
          </mxGeometry>
        </mxCell>
        <mxCell id="X3y3t1-5_hOGcymcrG0z-59" value="" style="endArrow=none;html=1;rounded=0;" edge="1" parent="1" source="X3y3t1-5_hOGcymcrG0z-26" target="X3y3t1-5_hOGcymcrG0z-3">
          <mxGeometry relative="1" as="geometry">
            <mxPoint x="511" y="245" as="sourcePoint" />
            <mxPoint x="480" y="310" as="targetPoint" />
          </mxGeometry>
        </mxCell>
        <mxCell id="X3y3t1-5_hOGcymcrG0z-60" value="" style="endArrow=none;html=1;rounded=0;" edge="1" parent="1" source="X3y3t1-5_hOGcymcrG0z-27" target="X3y3t1-5_hOGcymcrG0z-3">
          <mxGeometry relative="1" as="geometry">
            <mxPoint x="649.71" y="185" as="sourcePoint" />
            <mxPoint x="659.71" y="230" as="targetPoint" />
          </mxGeometry>
        </mxCell>
        <mxCell id="X3y3t1-5_hOGcymcrG0z-61" value="" style="endArrow=none;html=1;rounded=0;entryX=0.633;entryY=1.037;entryDx=0;entryDy=0;entryPerimeter=0;" edge="1" parent="1" source="X3y3t1-5_hOGcymcrG0z-28" target="X3y3t1-5_hOGcymcrG0z-3">
          <mxGeometry relative="1" as="geometry">
            <mxPoint x="660" y="300" as="sourcePoint" />
            <mxPoint x="620" y="300" as="targetPoint" />
          </mxGeometry>
        </mxCell>
        <mxCell id="X3y3t1-5_hOGcymcrG0z-62" value="" style="endArrow=none;html=1;rounded=0;" edge="1" parent="1" source="X3y3t1-5_hOGcymcrG0z-6" target="X3y3t1-5_hOGcymcrG0z-30">
          <mxGeometry relative="1" as="geometry">
            <mxPoint x="219" y="330.04" as="sourcePoint" />
            <mxPoint x="270" y="362.04" as="targetPoint" />
          </mxGeometry>
        </mxCell>
        <mxCell id="X3y3t1-5_hOGcymcrG0z-63" value="" style="endArrow=none;html=1;rounded=0;" edge="1" parent="1" source="X3y3t1-5_hOGcymcrG0z-6" target="X3y3t1-5_hOGcymcrG0z-29">
          <mxGeometry relative="1" as="geometry">
            <mxPoint x="230.81" y="442.42" as="sourcePoint" />
            <mxPoint x="199.81" y="440.42" as="targetPoint" />
          </mxGeometry>
        </mxCell>
        <mxCell id="X3y3t1-5_hOGcymcrG0z-64" value="" style="endArrow=none;html=1;rounded=0;exitX=0.756;exitY=0.949;exitDx=0;exitDy=0;exitPerimeter=0;" edge="1" parent="1" source="X3y3t1-5_hOGcymcrG0z-34" target="X3y3t1-5_hOGcymcrG0z-7">
          <mxGeometry relative="1" as="geometry">
            <mxPoint x="355.56529411764745" y="390" as="sourcePoint" />
            <mxPoint x="390.0000000000002" y="455" as="targetPoint" />
          </mxGeometry>
        </mxCell>
        <mxCell id="X3y3t1-5_hOGcymcrG0z-66" value="" style="endArrow=none;html=1;rounded=0;exitX=0.5;exitY=0;exitDx=0;exitDy=0;entryX=0.5;entryY=1;entryDx=0;entryDy=0;" edge="1" parent="1" source="X3y3t1-5_hOGcymcrG0z-32" target="X3y3t1-5_hOGcymcrG0z-7">
          <mxGeometry relative="1" as="geometry">
            <mxPoint x="416" y="404.52" as="sourcePoint" />
            <mxPoint x="480" y="399.52" as="targetPoint" />
          </mxGeometry>
        </mxCell>
        <mxCell id="X3y3t1-5_hOGcymcrG0z-67" value="" style="endArrow=none;html=1;rounded=0;exitX=0.395;exitY=0.029;exitDx=0;exitDy=0;entryX=0.874;entryY=0.993;entryDx=0;entryDy=0;entryPerimeter=0;exitPerimeter=0;" edge="1" parent="1" source="X3y3t1-5_hOGcymcrG0z-33" target="X3y3t1-5_hOGcymcrG0z-7">
          <mxGeometry relative="1" as="geometry">
            <mxPoint x="495" y="440" as="sourcePoint" />
            <mxPoint x="585" y="380" as="targetPoint" />
          </mxGeometry>
        </mxCell>
      </root>
    </mxGraphModel>
  </diagram>
</mxfile>
